M48
;DRILL file {Pcbnew (2013-07-07 BZR 4022)-stable} date 12/08/2015 01:07:30
;FORMAT={-:-/ absolute / metric / decimal}
FMAT,2
METRIC,TZ
T1C0.300
T2C0.813
T3C1.016
%
G90
G05
M71
T1
X163.5Y-166.8
X163.8Y-170.5
X163.8Y-171.7
X164.9Y-131.9
X164.9Y-133.3
X165.2Y-165.5
X167.6Y-132.
X167.7Y-126.1
X169.2Y-165.5
X170.8Y-138.7
X170.8Y-163.8
X170.9Y-129.9
X173.7Y-131.3
X173.7Y-134.5
X173.7Y-135.9
X173.7Y-165.3
X173.7Y-168.5
X173.8Y-169.8
X174.7Y-132.9
X174.7Y-166.9
X175.2Y-174.9
X175.7Y-131.3
X175.7Y-134.5
X175.7Y-163.1
X175.7Y-165.3
X175.7Y-168.5
X176.4Y-127.9
X178.2Y-160.9
X179.7Y-176.2
X181.5Y-134.3
X181.9Y-166.
X182.1Y-127.4
X182.7Y-134.3
X183.9Y-130.8
X184.5Y-182.8
X185.5Y-136.2
X185.6Y-170.
X185.7Y-163.1
X187.Y-136.2
X187.Y-164.3
X187.Y-168.2
X188.3Y-137.5
X188.3Y-167.
X188.4Y-130.9
X188.4Y-132.2
X189.2Y-129.6
X190.9Y-137.5
X190.9Y-162.
X192.2Y-136.2
X192.2Y-163.5
X211.1Y-170.4
X212.2Y-169.1
X212.4Y-175.3
X212.5Y-179.2
X213.5Y-166.5
X214.3Y-165.2
X215.8Y-184.8
X216.6Y-182.1
X217.4Y-134.1
X217.4Y-136.5
X217.4Y-186.4
X217.4Y-187.5
X220.7Y-126.6
X220.7Y-165.9
X220.7Y-173.6
X221.4Y-138.2
X221.5Y-158.9
X222.8Y-127.9
X223.2Y-131.4
X223.2Y-134.7
X223.8Y-177.4
X223.8Y-178.4
X223.8Y-180.8
X223.8Y-181.9
X224.2Y-129.2
X224.2Y-133.1
X225.2Y-131.5
X225.2Y-134.7
X225.4Y-172.3
X230.8Y-134.7
X232.8Y-134.7
X234.8Y-134.7
X234.8Y-172.3
X237.Y-128.4
X237.Y-129.6
T2
X181.2Y-140.73
X181.2Y-143.27
X181.2Y-156.73
X181.2Y-159.27
X217.3Y-138.57
X217.3Y-141.11
X217.3Y-143.65
X217.3Y-146.19
X217.3Y-148.73
X217.3Y-151.27
X217.3Y-153.81
X217.3Y-156.35
X217.3Y-158.89
X217.3Y-161.43
X220.2Y-145.73
X220.2Y-148.27
X220.2Y-151.73
X220.2Y-154.27
T3
X180.13Y-146.19
X180.13Y-148.73
X180.13Y-151.27
X180.13Y-153.81
X182.67Y-146.19
X182.67Y-148.73
X182.67Y-151.27
X182.67Y-153.81
T0
M30
