G04 (created by PCBNEW (2013-07-07 BZR 4022)-stable) date 12/08/2015 01:07:20*
%MOIN*%
G04 Gerber Fmt 3.4, Leading zero omitted, Abs format*
%FSLAX34Y34*%
G01*
G70*
G90*
G04 APERTURE LIST*
%ADD10C,0.00590551*%
%ADD11R,0.0551X0.0236*%
%ADD12R,0.1102X0.1575*%
%ADD13R,0.07X0.11*%
%ADD14R,0.055X0.035*%
%ADD15R,0.035X0.055*%
%ADD16R,0.045X0.025*%
%ADD17R,0.025X0.045*%
%ADD18R,0.055X0.055*%
%ADD19C,0.055*%
%ADD20R,0.06X0.06*%
%ADD21C,0.06*%
%ADD22R,0.19685X0.23622*%
%ADD23R,0.0669291X0.0669291*%
%ADD24R,0.0393701X0.15748*%
%ADD25R,0.15748X0.0393701*%
%ADD26R,0.11811X0.0590551*%
G04 APERTURE END LIST*
G54D10*
G54D11*
X69829Y-51572D03*
X67729Y-51572D03*
X69829Y-52072D03*
X69829Y-52572D03*
X69829Y-53072D03*
X67729Y-52072D03*
X67729Y-52572D03*
X67729Y-53072D03*
G54D12*
X68779Y-52322D03*
G54D11*
X67729Y-66458D03*
X69829Y-66458D03*
X67729Y-65958D03*
X67729Y-65458D03*
X67729Y-64958D03*
X69829Y-65958D03*
X69829Y-65458D03*
X69829Y-64958D03*
G54D12*
X68779Y-65708D03*
G54D11*
X89317Y-51651D03*
X87217Y-51651D03*
X89317Y-52151D03*
X89317Y-52651D03*
X89317Y-53151D03*
X87217Y-52151D03*
X87217Y-52651D03*
X87217Y-53151D03*
G54D12*
X88267Y-52401D03*
G54D13*
X83630Y-73818D03*
X85030Y-73818D03*
X86150Y-71417D03*
X87550Y-71417D03*
X86150Y-70078D03*
X87550Y-70078D03*
G54D14*
X85590Y-51672D03*
X85590Y-52422D03*
X71614Y-66477D03*
X71614Y-65727D03*
G54D15*
X66752Y-50826D03*
X66002Y-50826D03*
G54D16*
X66771Y-51471D03*
X66771Y-52071D03*
X86377Y-51629D03*
X86377Y-52229D03*
X86692Y-55959D03*
X86692Y-56559D03*
X70826Y-66520D03*
X70826Y-65920D03*
X83188Y-69542D03*
X83188Y-70142D03*
X88976Y-70251D03*
X88976Y-70851D03*
X90354Y-52189D03*
X90354Y-51589D03*
X70669Y-52071D03*
X70669Y-51471D03*
G54D17*
X68243Y-64212D03*
X68843Y-64212D03*
X89158Y-53858D03*
X88558Y-53858D03*
G54D16*
X66653Y-65881D03*
X66653Y-66481D03*
X70669Y-53252D03*
X70669Y-52652D03*
G54D18*
X86692Y-60736D03*
G54D19*
X86692Y-59736D03*
G54D18*
X86692Y-57374D03*
G54D19*
X86692Y-58374D03*
G54D18*
X85551Y-54555D03*
G54D19*
X85551Y-55555D03*
X85551Y-56555D03*
X85551Y-57555D03*
X85551Y-58555D03*
X85551Y-59555D03*
X85551Y-60555D03*
X85551Y-61555D03*
X85551Y-62555D03*
X85551Y-63555D03*
G54D20*
X70917Y-57555D03*
G54D21*
X71917Y-57555D03*
X70917Y-58555D03*
X71917Y-58555D03*
X70917Y-59555D03*
X71917Y-59555D03*
X70917Y-60555D03*
X71917Y-60555D03*
G54D22*
X85216Y-48661D03*
X90137Y-48661D03*
X72263Y-48661D03*
X67342Y-48661D03*
X72263Y-69370D03*
X67342Y-69370D03*
G54D23*
X92755Y-50787D03*
X91102Y-50787D03*
X71692Y-53385D03*
X71692Y-51732D03*
X65000Y-67362D03*
X66653Y-67362D03*
G54D18*
X71338Y-62704D03*
G54D19*
X71338Y-61704D03*
G54D18*
X71338Y-55405D03*
G54D19*
X71338Y-56405D03*
G54D17*
X87111Y-72834D03*
X86511Y-72834D03*
G54D24*
X90866Y-63976D03*
X91653Y-63976D03*
X92440Y-63976D03*
X92440Y-54133D03*
X91653Y-54133D03*
X90866Y-54133D03*
X65039Y-63976D03*
X65826Y-63976D03*
X66614Y-63976D03*
X66614Y-54133D03*
X65826Y-54133D03*
X65039Y-54133D03*
G54D25*
X73818Y-71181D03*
X73818Y-71968D03*
X73818Y-72755D03*
X83661Y-72755D03*
X83661Y-71968D03*
X83661Y-71181D03*
X73818Y-45354D03*
X73818Y-46141D03*
X73818Y-46929D03*
X83661Y-46929D03*
X83661Y-46141D03*
X83661Y-45354D03*
G54D26*
X85944Y-65322D03*
X85944Y-66322D03*
X85944Y-68322D03*
X89881Y-68322D03*
X89881Y-65322D03*
M02*
