G04 (created by PCBNEW (2013-07-07 BZR 4022)-stable) date 12/08/2015 01:07:20*
%MOIN*%
G04 Gerber Fmt 3.4, Leading zero omitted, Abs format*
%FSLAX34Y34*%
G01*
G70*
G90*
G04 APERTURE LIST*
%ADD10C,0.00590551*%
%ADD11C,0.00787402*%
%ADD12C,0.005*%
%ADD13C,0.0039*%
%ADD14C,0.012*%
G04 APERTURE END LIST*
G54D10*
G54D11*
X72440Y-50196D02*
X72440Y-67913D01*
X85039Y-50196D02*
X72440Y-50196D01*
X85039Y-67913D02*
X85039Y-50196D01*
X72440Y-67913D02*
X85039Y-67913D01*
G54D12*
X68129Y-53385D02*
X68129Y-51279D01*
X69429Y-51279D02*
X69429Y-53385D01*
X69429Y-53385D02*
X68129Y-53385D01*
X69429Y-51279D02*
X68129Y-51279D01*
X68979Y-51272D02*
X68979Y-51472D01*
X68979Y-51472D02*
X68579Y-51472D01*
X68579Y-51472D02*
X68579Y-51272D01*
X69429Y-64645D02*
X69429Y-66751D01*
X68129Y-66751D02*
X68129Y-64645D01*
X68129Y-64645D02*
X69429Y-64645D01*
X68129Y-66751D02*
X69429Y-66751D01*
X68579Y-66758D02*
X68579Y-66558D01*
X68579Y-66558D02*
X68979Y-66558D01*
X68979Y-66558D02*
X68979Y-66758D01*
X87617Y-53464D02*
X87617Y-51358D01*
X88917Y-51358D02*
X88917Y-53464D01*
X88917Y-53464D02*
X87617Y-53464D01*
X88917Y-51358D02*
X87617Y-51358D01*
X88467Y-51351D02*
X88467Y-51551D01*
X88467Y-51551D02*
X88067Y-51551D01*
X88067Y-51551D02*
X88067Y-51351D01*
X83230Y-73218D02*
X83230Y-74418D01*
X84680Y-74418D02*
X85430Y-74418D01*
X85430Y-74418D02*
X85430Y-73218D01*
X85430Y-73218D02*
X84680Y-73218D01*
X84030Y-73218D02*
X83230Y-73218D01*
X83309Y-73218D02*
X83309Y-74418D01*
X83230Y-74418D02*
X84030Y-74418D01*
X85750Y-70817D02*
X85750Y-72017D01*
X87200Y-72017D02*
X87950Y-72017D01*
X87950Y-72017D02*
X87950Y-70817D01*
X87950Y-70817D02*
X87200Y-70817D01*
X86550Y-70817D02*
X85750Y-70817D01*
X85829Y-70817D02*
X85829Y-72017D01*
X85750Y-72017D02*
X86550Y-72017D01*
X85750Y-69478D02*
X85750Y-70678D01*
X87200Y-70678D02*
X87950Y-70678D01*
X87950Y-70678D02*
X87950Y-69478D01*
X87950Y-69478D02*
X87200Y-69478D01*
X86550Y-69478D02*
X85750Y-69478D01*
X85829Y-69478D02*
X85829Y-70678D01*
X85750Y-70678D02*
X86550Y-70678D01*
G54D13*
X85340Y-51397D02*
G75*
G03X85340Y-51397I-50J0D01*
G74*
G01*
X85290Y-51847D02*
X85290Y-51447D01*
X85290Y-51447D02*
X85890Y-51447D01*
X85890Y-51447D02*
X85890Y-51847D01*
X85890Y-52247D02*
X85890Y-52647D01*
X85890Y-52647D02*
X85290Y-52647D01*
X85290Y-52647D02*
X85290Y-52247D01*
X71964Y-66752D02*
G75*
G03X71964Y-66752I-50J0D01*
G74*
G01*
X71914Y-66302D02*
X71914Y-66702D01*
X71914Y-66702D02*
X71314Y-66702D01*
X71314Y-66702D02*
X71314Y-66302D01*
X71314Y-65902D02*
X71314Y-65502D01*
X71314Y-65502D02*
X71914Y-65502D01*
X71914Y-65502D02*
X71914Y-65902D01*
X67077Y-50526D02*
G75*
G03X67077Y-50526I-50J0D01*
G74*
G01*
X66577Y-50526D02*
X66977Y-50526D01*
X66977Y-50526D02*
X66977Y-51126D01*
X66977Y-51126D02*
X66577Y-51126D01*
X66177Y-51126D02*
X65777Y-51126D01*
X65777Y-51126D02*
X65777Y-50526D01*
X65777Y-50526D02*
X66177Y-50526D01*
G54D12*
X67046Y-51574D02*
X67046Y-51296D01*
X67046Y-51296D02*
X66496Y-51296D01*
X66496Y-51296D02*
X66496Y-51574D01*
X67046Y-52246D02*
X67046Y-51968D01*
X67046Y-52246D02*
X66496Y-52246D01*
X66496Y-52246D02*
X66496Y-51968D01*
X86652Y-51732D02*
X86652Y-51454D01*
X86652Y-51454D02*
X86102Y-51454D01*
X86102Y-51454D02*
X86102Y-51732D01*
X86652Y-52404D02*
X86652Y-52126D01*
X86652Y-52404D02*
X86102Y-52404D01*
X86102Y-52404D02*
X86102Y-52126D01*
X86967Y-56062D02*
X86967Y-55784D01*
X86967Y-55784D02*
X86417Y-55784D01*
X86417Y-55784D02*
X86417Y-56062D01*
X86967Y-56734D02*
X86967Y-56456D01*
X86967Y-56734D02*
X86417Y-56734D01*
X86417Y-56734D02*
X86417Y-56456D01*
X70551Y-66417D02*
X70551Y-66695D01*
X70551Y-66695D02*
X71101Y-66695D01*
X71101Y-66695D02*
X71101Y-66417D01*
X70551Y-65745D02*
X70551Y-66023D01*
X70551Y-65745D02*
X71101Y-65745D01*
X71101Y-65745D02*
X71101Y-66023D01*
X83438Y-69392D02*
X83438Y-70292D01*
X83438Y-70292D02*
X82938Y-70292D01*
X82938Y-70292D02*
X82938Y-69392D01*
X82938Y-69392D02*
X83438Y-69392D01*
X89226Y-70101D02*
X89226Y-71001D01*
X89226Y-71001D02*
X88726Y-71001D01*
X88726Y-71001D02*
X88726Y-70101D01*
X88726Y-70101D02*
X89226Y-70101D01*
X90104Y-52339D02*
X90104Y-51439D01*
X90104Y-51439D02*
X90604Y-51439D01*
X90604Y-51439D02*
X90604Y-52339D01*
X90604Y-52339D02*
X90104Y-52339D01*
X70419Y-52221D02*
X70419Y-51321D01*
X70419Y-51321D02*
X70919Y-51321D01*
X70919Y-51321D02*
X70919Y-52221D01*
X70919Y-52221D02*
X70419Y-52221D01*
X68093Y-63962D02*
X68993Y-63962D01*
X68993Y-63962D02*
X68993Y-64462D01*
X68993Y-64462D02*
X68093Y-64462D01*
X68093Y-64462D02*
X68093Y-63962D01*
X89308Y-54108D02*
X88408Y-54108D01*
X88408Y-54108D02*
X88408Y-53608D01*
X88408Y-53608D02*
X89308Y-53608D01*
X89308Y-53608D02*
X89308Y-54108D01*
X66903Y-65731D02*
X66903Y-66631D01*
X66903Y-66631D02*
X66403Y-66631D01*
X66403Y-66631D02*
X66403Y-65731D01*
X66403Y-65731D02*
X66903Y-65731D01*
X70419Y-53402D02*
X70419Y-52502D01*
X70419Y-52502D02*
X70919Y-52502D01*
X70919Y-52502D02*
X70919Y-53402D01*
X70919Y-53402D02*
X70419Y-53402D01*
G54D14*
X87192Y-61236D02*
X86192Y-61236D01*
X86192Y-61236D02*
X86192Y-59236D01*
X86192Y-59236D02*
X87192Y-59236D01*
X87192Y-59236D02*
X87192Y-61236D01*
X86192Y-56874D02*
X87192Y-56874D01*
X87192Y-56874D02*
X87192Y-58874D01*
X87192Y-58874D02*
X86192Y-58874D01*
X86192Y-58874D02*
X86192Y-56874D01*
X85051Y-54055D02*
X86051Y-54055D01*
X86051Y-54055D02*
X86051Y-64055D01*
X86051Y-64055D02*
X85051Y-64055D01*
X85051Y-64055D02*
X85051Y-54055D01*
X85051Y-55055D02*
X86051Y-55055D01*
X72417Y-57055D02*
X72417Y-61055D01*
X72417Y-61055D02*
X70417Y-61055D01*
X70417Y-61055D02*
X70417Y-57055D01*
X70417Y-57055D02*
X72417Y-57055D01*
G54D10*
X85216Y-46200D02*
X90137Y-46200D01*
X90137Y-46200D02*
X90137Y-51122D01*
X90137Y-51122D02*
X85216Y-51122D01*
X85216Y-51122D02*
X85216Y-46200D01*
X72263Y-51122D02*
X67342Y-51122D01*
X67342Y-51122D02*
X67342Y-46200D01*
X67342Y-46200D02*
X72263Y-46200D01*
X72263Y-46200D02*
X72263Y-51122D01*
X72263Y-71830D02*
X67342Y-71830D01*
X67342Y-71830D02*
X67342Y-66909D01*
X67342Y-66909D02*
X72263Y-66909D01*
X72263Y-66909D02*
X72263Y-71830D01*
X91259Y-51377D02*
X91259Y-50196D01*
X92834Y-51377D02*
X91023Y-51377D01*
X91023Y-51377D02*
X91023Y-50196D01*
X91023Y-50196D02*
X92834Y-50196D01*
X92834Y-50196D02*
X92834Y-51377D01*
X71102Y-51889D02*
X72283Y-51889D01*
X71102Y-53464D02*
X71102Y-51653D01*
X71102Y-51653D02*
X72283Y-51653D01*
X72283Y-51653D02*
X72283Y-53464D01*
X72283Y-53464D02*
X71102Y-53464D01*
X66496Y-66771D02*
X66496Y-67952D01*
X64921Y-66771D02*
X66732Y-66771D01*
X66732Y-66771D02*
X66732Y-67952D01*
X66732Y-67952D02*
X64921Y-67952D01*
X64921Y-67952D02*
X64921Y-66771D01*
G54D12*
X72339Y-62204D02*
G75*
G03X72339Y-62204I-1001J0D01*
G74*
G01*
X72339Y-55905D02*
G75*
G03X72339Y-55905I-1001J0D01*
G74*
G01*
X87261Y-73084D02*
X86361Y-73084D01*
X86361Y-73084D02*
X86361Y-72584D01*
X86361Y-72584D02*
X87261Y-72584D01*
X87261Y-72584D02*
X87261Y-73084D01*
G54D10*
X87716Y-62992D02*
X87716Y-55118D01*
X87716Y-55118D02*
X95590Y-55118D01*
X95590Y-55118D02*
X95590Y-62992D01*
X95590Y-62992D02*
X87716Y-62992D01*
X61889Y-62992D02*
X61889Y-55118D01*
X61889Y-55118D02*
X69763Y-55118D01*
X69763Y-55118D02*
X69763Y-62992D01*
X69763Y-62992D02*
X61889Y-62992D01*
X74803Y-68031D02*
X82677Y-68031D01*
X82677Y-68031D02*
X82677Y-75905D01*
X82677Y-75905D02*
X74803Y-75905D01*
X74803Y-75905D02*
X74803Y-68031D01*
X74803Y-42204D02*
X82677Y-42204D01*
X82677Y-42204D02*
X82677Y-50078D01*
X82677Y-50078D02*
X74803Y-50078D01*
X74803Y-50078D02*
X74803Y-42204D01*
X85913Y-69322D02*
X85913Y-64322D01*
X85913Y-64322D02*
X89913Y-64322D01*
X89913Y-64322D02*
X89913Y-69322D01*
X89913Y-69322D02*
X85913Y-69322D01*
M02*
