G04 (created by PCBNEW (2013-07-07 BZR 4022)-stable) date 12/08/2015 01:07:20*
%MOIN*%
G04 Gerber Fmt 3.4, Leading zero omitted, Abs format*
%FSLAX34Y34*%
G01*
G70*
G90*
G04 APERTURE LIST*
%ADD10C,0.00590551*%
%ADD11R,0.055X0.055*%
%ADD12C,0.055*%
%ADD13R,0.06X0.06*%
%ADD14C,0.06*%
%ADD15C,0.0275591*%
%ADD16C,0.019685*%
%ADD17C,0.0393701*%
%ADD18C,0.0275591*%
%ADD19C,0.00787402*%
G04 APERTURE END LIST*
G54D10*
G54D11*
X86692Y-60736D03*
G54D12*
X86692Y-59736D03*
G54D11*
X86692Y-57374D03*
G54D12*
X86692Y-58374D03*
G54D11*
X85551Y-54555D03*
G54D12*
X85551Y-55555D03*
X85551Y-56555D03*
X85551Y-57555D03*
X85551Y-58555D03*
X85551Y-59555D03*
X85551Y-60555D03*
X85551Y-61555D03*
X85551Y-62555D03*
X85551Y-63555D03*
G54D13*
X70917Y-57555D03*
G54D14*
X71917Y-57555D03*
X70917Y-58555D03*
X71917Y-58555D03*
X70917Y-59555D03*
X71917Y-59555D03*
X70917Y-60555D03*
X71917Y-60555D03*
G54D11*
X71338Y-62704D03*
G54D12*
X71338Y-61704D03*
G54D11*
X71338Y-55405D03*
G54D12*
X71338Y-56405D03*
G54D15*
X67283Y-51141D03*
X87165Y-54409D03*
X85590Y-53740D03*
X87204Y-62559D03*
X67244Y-54606D03*
X65984Y-51968D03*
X86889Y-65314D03*
X86889Y-68346D03*
X85590Y-73818D03*
X85590Y-73385D03*
X69173Y-64212D03*
X64488Y-67598D03*
X68385Y-51692D03*
X69173Y-51692D03*
X68385Y-52952D03*
X69173Y-52952D03*
X68779Y-52322D03*
X87874Y-51732D03*
X87874Y-53031D03*
X88661Y-53031D03*
X88661Y-51771D03*
X88267Y-52401D03*
X68385Y-65078D03*
X69173Y-65078D03*
X69173Y-66338D03*
X68779Y-65708D03*
X68385Y-66338D03*
X71929Y-52874D03*
X71456Y-52874D03*
X85590Y-52795D03*
X93307Y-51023D03*
X93307Y-50551D03*
X88110Y-70236D03*
X88110Y-69842D03*
X88110Y-71181D03*
X88110Y-71614D03*
X64488Y-67125D03*
X71614Y-65354D03*
X64921Y-52480D03*
X75157Y-63779D03*
X75157Y-54133D03*
X85275Y-71692D03*
X84370Y-65039D03*
X74173Y-51535D03*
X91653Y-53031D03*
X87716Y-50354D03*
X69448Y-50354D03*
X74133Y-54133D03*
X74133Y-65748D03*
X68385Y-53503D03*
X70748Y-69370D03*
X65039Y-65157D03*
X71692Y-50157D03*
X72401Y-51496D03*
X73110Y-64212D03*
X92440Y-67834D03*
X88740Y-67834D03*
X73070Y-66929D03*
X73031Y-53622D03*
X68976Y-68858D03*
X66614Y-65157D03*
X75669Y-64370D03*
X75669Y-53622D03*
X84960Y-72755D03*
X84055Y-65551D03*
X74488Y-51023D03*
X86889Y-49842D03*
X92440Y-53031D03*
X64921Y-51929D03*
X74173Y-52047D03*
X88267Y-50866D03*
X90866Y-53031D03*
X66023Y-49645D03*
X83110Y-67086D03*
X83661Y-70551D03*
X67244Y-64488D03*
X68425Y-66850D03*
X70157Y-63346D03*
X83622Y-69015D03*
X73622Y-64685D03*
X83543Y-66574D03*
X73622Y-53622D03*
X73622Y-66220D03*
X64370Y-65669D03*
X72637Y-71968D03*
G54D16*
X70917Y-60555D02*
X71417Y-60055D01*
X70787Y-55956D02*
X71338Y-55405D01*
X70787Y-56811D02*
X70787Y-55956D01*
X70905Y-56929D02*
X70787Y-56811D01*
X71181Y-56929D02*
X70905Y-56929D01*
X71417Y-57165D02*
X71181Y-56929D01*
X71417Y-60055D02*
X71417Y-57165D01*
G54D17*
X71338Y-55405D02*
X71338Y-54960D01*
X71338Y-54960D02*
X70472Y-54094D01*
X70472Y-54094D02*
X68110Y-54094D01*
X68110Y-54094D02*
X67283Y-53267D01*
X67283Y-53267D02*
X67283Y-51141D01*
X87165Y-54409D02*
X86496Y-53740D01*
X86496Y-53740D02*
X85590Y-53740D01*
G54D16*
X85551Y-62555D02*
X87200Y-62555D01*
X87200Y-62555D02*
X87204Y-62559D01*
X65984Y-53346D02*
X67244Y-54606D01*
X65984Y-51968D02*
X65984Y-53346D01*
X68385Y-65078D02*
X69173Y-65078D01*
X69173Y-65078D02*
X69173Y-66338D01*
X69173Y-66338D02*
X68385Y-66338D01*
X68385Y-66338D02*
X68385Y-65078D01*
X87874Y-53031D02*
X88661Y-53031D01*
X69173Y-52952D02*
X68385Y-52952D01*
X69173Y-52952D02*
X69173Y-51692D01*
X68385Y-51692D02*
X69173Y-51692D01*
X68385Y-52952D02*
X68385Y-51692D01*
X68779Y-52086D02*
X69173Y-51692D01*
X68779Y-52322D02*
X68779Y-52086D01*
X68779Y-52322D02*
X68779Y-52559D01*
X68779Y-52559D02*
X68385Y-52952D01*
X68779Y-52559D02*
X69173Y-52952D01*
X68779Y-52322D02*
X68779Y-52086D01*
X68779Y-52322D02*
X68779Y-52086D01*
X87874Y-51732D02*
X88622Y-51732D01*
X88622Y-51732D02*
X88661Y-51771D01*
X88661Y-51771D02*
X88661Y-53031D01*
X87874Y-53031D02*
X87874Y-51732D01*
X88267Y-52401D02*
X88267Y-52165D01*
X88267Y-52401D02*
X88267Y-52637D01*
X88267Y-52637D02*
X87874Y-53031D01*
X88267Y-52637D02*
X88661Y-53031D01*
X88267Y-52165D02*
X88661Y-51771D01*
X88267Y-52401D02*
X88267Y-52165D01*
X88267Y-52401D02*
X88267Y-52165D01*
X68779Y-65708D02*
X68779Y-65472D01*
X68779Y-65472D02*
X68385Y-65078D01*
X68779Y-65472D02*
X69173Y-65078D01*
X68779Y-65708D02*
X68779Y-65944D01*
X68779Y-65944D02*
X69173Y-66338D01*
X68779Y-65944D02*
X68385Y-66338D01*
G54D17*
X65118Y-52480D02*
X65511Y-52086D01*
X64921Y-52480D02*
X65118Y-52480D01*
X75157Y-54133D02*
X75157Y-63779D01*
X85275Y-70433D02*
X85275Y-71692D01*
X84645Y-69803D02*
X85275Y-70433D01*
X84645Y-65314D02*
X84645Y-69803D01*
X84370Y-65039D02*
X84645Y-65314D01*
X65511Y-49330D02*
X65511Y-52086D01*
X72165Y-49133D02*
X65708Y-49133D01*
X73622Y-50590D02*
X72165Y-49133D01*
X73622Y-50984D02*
X73622Y-50590D01*
X74173Y-51535D02*
X73622Y-50984D01*
X65708Y-49133D02*
X65511Y-49330D01*
X88976Y-50354D02*
X87716Y-50354D01*
X88976Y-50354D02*
X91653Y-53031D01*
X69448Y-50354D02*
X69015Y-50354D01*
X69015Y-50354D02*
X67874Y-51496D01*
X67874Y-51496D02*
X67874Y-53110D01*
X74133Y-65748D02*
X74133Y-54133D01*
X67874Y-53110D02*
X68267Y-53503D01*
X68267Y-53503D02*
X68385Y-53503D01*
X65039Y-65157D02*
X65039Y-65984D01*
X68425Y-69370D02*
X70748Y-69370D01*
X65039Y-65984D02*
X68425Y-69370D01*
X65039Y-65157D02*
X65039Y-65157D01*
X72401Y-50866D02*
X71692Y-50157D01*
X72401Y-51496D02*
X72401Y-50866D01*
X88740Y-67834D02*
X92440Y-67834D01*
X73110Y-66889D02*
X73070Y-66929D01*
X73110Y-53700D02*
X73110Y-64212D01*
X73110Y-64212D02*
X73110Y-66259D01*
X73031Y-53622D02*
X73110Y-53700D01*
X73110Y-66259D02*
X73110Y-66889D01*
X66614Y-66496D02*
X68976Y-68858D01*
X66614Y-65157D02*
X66614Y-66496D01*
X68976Y-68858D02*
X68976Y-68858D01*
X66614Y-65157D02*
X66614Y-65157D01*
X75669Y-53622D02*
X75669Y-64370D01*
X84291Y-72086D02*
X84960Y-72755D01*
X84291Y-70314D02*
X84291Y-72086D01*
X84133Y-70157D02*
X84291Y-70314D01*
X84133Y-65629D02*
X84133Y-70157D01*
X84055Y-65551D02*
X84133Y-65629D01*
X72362Y-48622D02*
X66102Y-48622D01*
X74212Y-50472D02*
X72362Y-48622D01*
X74212Y-50748D02*
X74212Y-50472D01*
X74488Y-51023D02*
X74212Y-50748D01*
X65511Y-48622D02*
X65000Y-49133D01*
X65000Y-49133D02*
X65000Y-51850D01*
X65000Y-51850D02*
X64921Y-51929D01*
X66102Y-48622D02*
X65511Y-48622D01*
X89251Y-49842D02*
X86889Y-49842D01*
X92440Y-53031D02*
X89251Y-49842D01*
G54D18*
X64921Y-51929D02*
X64921Y-51929D01*
G54D17*
X74173Y-52047D02*
X73740Y-52047D01*
X73740Y-52047D02*
X72992Y-51299D01*
X72992Y-51299D02*
X72992Y-50708D01*
X72992Y-50708D02*
X71929Y-49645D01*
X71929Y-49645D02*
X67992Y-49645D01*
X88700Y-50866D02*
X88267Y-50866D01*
X90866Y-53031D02*
X88700Y-50866D01*
X67992Y-49645D02*
X66023Y-49645D01*
X66574Y-53307D02*
X66574Y-51062D01*
X66574Y-51062D02*
X67992Y-49645D01*
X83110Y-70000D02*
X83661Y-70551D01*
X83110Y-68503D02*
X83110Y-70000D01*
X83110Y-68503D02*
X83110Y-67086D01*
X67244Y-66023D02*
X68070Y-66850D01*
X67244Y-64488D02*
X67244Y-66023D01*
X68070Y-66850D02*
X68425Y-66850D01*
X69960Y-54645D02*
X67913Y-54645D01*
X67913Y-54645D02*
X66574Y-53307D01*
X69960Y-54645D02*
X70196Y-54881D01*
X70196Y-63307D02*
X70157Y-63346D01*
X70196Y-54881D02*
X70196Y-63307D01*
X83543Y-66574D02*
X83622Y-66653D01*
X83622Y-66653D02*
X83622Y-69015D01*
X73622Y-53622D02*
X73622Y-64685D01*
X73622Y-64685D02*
X73622Y-66220D01*
X64370Y-65669D02*
X64370Y-66417D01*
X64370Y-66417D02*
X69921Y-71968D01*
X69921Y-71968D02*
X72637Y-71968D01*
G54D10*
G36*
X71122Y-59166D02*
X71011Y-59118D01*
X70837Y-59115D01*
X70675Y-59179D01*
X70662Y-59188D01*
X70633Y-59256D01*
X70917Y-59541D01*
X70922Y-59535D01*
X70936Y-59549D01*
X70931Y-59555D01*
X70936Y-59560D01*
X70922Y-59574D01*
X70917Y-59569D01*
X70633Y-59853D01*
X70662Y-59921D01*
X70822Y-59991D01*
X70996Y-59994D01*
X71101Y-59952D01*
X70996Y-60058D01*
X70818Y-60058D01*
X70636Y-60133D01*
X70590Y-60179D01*
X70590Y-59826D01*
X70619Y-59839D01*
X70903Y-59555D01*
X70619Y-59270D01*
X70590Y-59283D01*
X70590Y-58931D01*
X70635Y-58976D01*
X70818Y-59051D01*
X71015Y-59052D01*
X71122Y-59008D01*
X71122Y-59166D01*
X71122Y-59166D01*
G37*
G54D19*
X71122Y-59166D02*
X71011Y-59118D01*
X70837Y-59115D01*
X70675Y-59179D01*
X70662Y-59188D01*
X70633Y-59256D01*
X70917Y-59541D01*
X70922Y-59535D01*
X70936Y-59549D01*
X70931Y-59555D01*
X70936Y-59560D01*
X70922Y-59574D01*
X70917Y-59569D01*
X70633Y-59853D01*
X70662Y-59921D01*
X70822Y-59991D01*
X70996Y-59994D01*
X71101Y-59952D01*
X70996Y-60058D01*
X70818Y-60058D01*
X70636Y-60133D01*
X70590Y-60179D01*
X70590Y-59826D01*
X70619Y-59839D01*
X70903Y-59555D01*
X70619Y-59270D01*
X70590Y-59283D01*
X70590Y-58931D01*
X70635Y-58976D01*
X70818Y-59051D01*
X71015Y-59052D01*
X71122Y-59008D01*
X71122Y-59166D01*
G54D10*
G36*
X95266Y-54862D02*
X92834Y-54862D01*
X92834Y-53031D01*
X92804Y-52880D01*
X92719Y-52753D01*
X89530Y-49564D01*
X89402Y-49478D01*
X89251Y-49448D01*
X86889Y-49448D01*
X86739Y-49478D01*
X86611Y-49564D01*
X86526Y-49691D01*
X86496Y-49842D01*
X86526Y-49993D01*
X86611Y-50120D01*
X86739Y-50206D01*
X86889Y-50236D01*
X87346Y-50236D01*
X87322Y-50354D01*
X87352Y-50504D01*
X87438Y-50632D01*
X87565Y-50718D01*
X87716Y-50748D01*
X87897Y-50748D01*
X87874Y-50866D01*
X87903Y-51016D01*
X87989Y-51144D01*
X88117Y-51229D01*
X88267Y-51259D01*
X88537Y-51259D01*
X90587Y-53309D01*
X90715Y-53395D01*
X90866Y-53425D01*
X91016Y-53395D01*
X91144Y-53309D01*
X91229Y-53182D01*
X91232Y-53167D01*
X91375Y-53309D01*
X91502Y-53395D01*
X91653Y-53425D01*
X91804Y-53395D01*
X91931Y-53309D01*
X92017Y-53182D01*
X92020Y-53167D01*
X92162Y-53309D01*
X92290Y-53395D01*
X92440Y-53425D01*
X92591Y-53395D01*
X92719Y-53309D01*
X92804Y-53182D01*
X92834Y-53031D01*
X92834Y-54862D01*
X87677Y-54862D01*
X87594Y-54878D01*
X87559Y-54902D01*
X87559Y-54409D01*
X87529Y-54258D01*
X87443Y-54131D01*
X86774Y-53461D01*
X86646Y-53376D01*
X86496Y-53346D01*
X85590Y-53346D01*
X85439Y-53376D01*
X85312Y-53461D01*
X85226Y-53589D01*
X85196Y-53740D01*
X85226Y-53890D01*
X85312Y-54018D01*
X85408Y-54083D01*
X85237Y-54083D01*
X85164Y-54113D01*
X85109Y-54168D01*
X85079Y-54240D01*
X85079Y-54319D01*
X85079Y-54869D01*
X85109Y-54941D01*
X85164Y-54996D01*
X85236Y-55026D01*
X85315Y-55027D01*
X85865Y-55027D01*
X85937Y-54997D01*
X85992Y-54941D01*
X86022Y-54869D01*
X86023Y-54791D01*
X86023Y-54241D01*
X85993Y-54168D01*
X85958Y-54133D01*
X86332Y-54133D01*
X86886Y-54687D01*
X87014Y-54773D01*
X87165Y-54803D01*
X87316Y-54773D01*
X87443Y-54687D01*
X87529Y-54560D01*
X87559Y-54409D01*
X87559Y-54902D01*
X87524Y-54925D01*
X87477Y-54995D01*
X87460Y-55078D01*
X87460Y-62341D01*
X87394Y-62275D01*
X87271Y-62224D01*
X87164Y-62224D01*
X87164Y-60972D01*
X87164Y-60422D01*
X87164Y-57610D01*
X87164Y-57060D01*
X87134Y-56987D01*
X87079Y-56932D01*
X87007Y-56902D01*
X86928Y-56902D01*
X86378Y-56902D01*
X86306Y-56932D01*
X86251Y-56987D01*
X86221Y-57059D01*
X86221Y-57138D01*
X86221Y-57688D01*
X86250Y-57760D01*
X86306Y-57815D01*
X86378Y-57845D01*
X86456Y-57845D01*
X87006Y-57845D01*
X87079Y-57815D01*
X87134Y-57760D01*
X87164Y-57688D01*
X87164Y-57610D01*
X87164Y-60422D01*
X87134Y-60349D01*
X87106Y-60321D01*
X87106Y-59660D01*
X87106Y-58298D01*
X87046Y-58145D01*
X87039Y-58134D01*
X86973Y-58107D01*
X86959Y-58121D01*
X86959Y-58093D01*
X86932Y-58027D01*
X86781Y-57962D01*
X86617Y-57959D01*
X86464Y-58020D01*
X86453Y-58027D01*
X86426Y-58093D01*
X86692Y-58360D01*
X86959Y-58093D01*
X86959Y-58121D01*
X86706Y-58374D01*
X86973Y-58640D01*
X87039Y-58613D01*
X87104Y-58462D01*
X87106Y-58298D01*
X87106Y-59660D01*
X87046Y-59507D01*
X87039Y-59496D01*
X86973Y-59470D01*
X86959Y-59483D01*
X86959Y-59456D01*
X86959Y-58654D01*
X86692Y-58387D01*
X86678Y-58401D01*
X86678Y-58374D01*
X86412Y-58107D01*
X86346Y-58134D01*
X86281Y-58285D01*
X86278Y-58449D01*
X86339Y-58602D01*
X86346Y-58613D01*
X86412Y-58640D01*
X86678Y-58374D01*
X86678Y-58401D01*
X86426Y-58654D01*
X86453Y-58720D01*
X86604Y-58785D01*
X86768Y-58788D01*
X86921Y-58727D01*
X86932Y-58720D01*
X86959Y-58654D01*
X86959Y-59456D01*
X86932Y-59390D01*
X86781Y-59324D01*
X86617Y-59322D01*
X86464Y-59382D01*
X86453Y-59390D01*
X86426Y-59456D01*
X86692Y-59722D01*
X86959Y-59456D01*
X86959Y-59483D01*
X86706Y-59736D01*
X86973Y-60002D01*
X87039Y-59975D01*
X87104Y-59824D01*
X87106Y-59660D01*
X87106Y-60321D01*
X87079Y-60294D01*
X87007Y-60264D01*
X86959Y-60264D01*
X86959Y-60016D01*
X86692Y-59750D01*
X86678Y-59764D01*
X86678Y-59736D01*
X86412Y-59470D01*
X86346Y-59496D01*
X86281Y-59647D01*
X86278Y-59811D01*
X86339Y-59964D01*
X86346Y-59975D01*
X86412Y-60002D01*
X86678Y-59736D01*
X86678Y-59764D01*
X86426Y-60016D01*
X86453Y-60082D01*
X86604Y-60147D01*
X86768Y-60150D01*
X86921Y-60089D01*
X86932Y-60082D01*
X86959Y-60016D01*
X86959Y-60264D01*
X86928Y-60264D01*
X86378Y-60264D01*
X86306Y-60294D01*
X86251Y-60349D01*
X86221Y-60421D01*
X86221Y-60500D01*
X86221Y-61050D01*
X86250Y-61122D01*
X86306Y-61178D01*
X86378Y-61208D01*
X86456Y-61208D01*
X87006Y-61208D01*
X87079Y-61178D01*
X87134Y-61122D01*
X87164Y-61050D01*
X87164Y-60972D01*
X87164Y-62224D01*
X87138Y-62224D01*
X87052Y-62259D01*
X86023Y-62259D01*
X86023Y-61461D01*
X86023Y-60461D01*
X86023Y-59461D01*
X86023Y-58461D01*
X86023Y-57461D01*
X86023Y-56461D01*
X86023Y-55461D01*
X85951Y-55288D01*
X85818Y-55155D01*
X85645Y-55083D01*
X85457Y-55083D01*
X85284Y-55154D01*
X85151Y-55287D01*
X85079Y-55460D01*
X85079Y-55648D01*
X85150Y-55822D01*
X85283Y-55954D01*
X85456Y-56026D01*
X85644Y-56027D01*
X85818Y-55955D01*
X85950Y-55822D01*
X86022Y-55649D01*
X86023Y-55461D01*
X86023Y-56461D01*
X85951Y-56288D01*
X85818Y-56155D01*
X85645Y-56083D01*
X85457Y-56083D01*
X85284Y-56154D01*
X85151Y-56287D01*
X85079Y-56460D01*
X85079Y-56648D01*
X85150Y-56822D01*
X85283Y-56954D01*
X85456Y-57026D01*
X85644Y-57027D01*
X85818Y-56955D01*
X85950Y-56822D01*
X86022Y-56649D01*
X86023Y-56461D01*
X86023Y-57461D01*
X85951Y-57288D01*
X85818Y-57155D01*
X85645Y-57083D01*
X85457Y-57083D01*
X85284Y-57154D01*
X85151Y-57287D01*
X85079Y-57460D01*
X85079Y-57648D01*
X85150Y-57822D01*
X85283Y-57954D01*
X85456Y-58026D01*
X85644Y-58027D01*
X85818Y-57955D01*
X85950Y-57822D01*
X86022Y-57649D01*
X86023Y-57461D01*
X86023Y-58461D01*
X85951Y-58288D01*
X85818Y-58155D01*
X85645Y-58083D01*
X85457Y-58083D01*
X85284Y-58154D01*
X85151Y-58287D01*
X85079Y-58460D01*
X85079Y-58648D01*
X85150Y-58822D01*
X85283Y-58954D01*
X85456Y-59026D01*
X85644Y-59027D01*
X85818Y-58955D01*
X85950Y-58822D01*
X86022Y-58649D01*
X86023Y-58461D01*
X86023Y-59461D01*
X85951Y-59288D01*
X85818Y-59155D01*
X85645Y-59083D01*
X85457Y-59083D01*
X85284Y-59154D01*
X85151Y-59287D01*
X85079Y-59460D01*
X85079Y-59648D01*
X85150Y-59822D01*
X85283Y-59954D01*
X85456Y-60026D01*
X85644Y-60027D01*
X85818Y-59955D01*
X85950Y-59822D01*
X86022Y-59649D01*
X86023Y-59461D01*
X86023Y-60461D01*
X85951Y-60288D01*
X85818Y-60155D01*
X85645Y-60083D01*
X85457Y-60083D01*
X85284Y-60154D01*
X85151Y-60287D01*
X85079Y-60460D01*
X85079Y-60648D01*
X85150Y-60822D01*
X85283Y-60954D01*
X85456Y-61026D01*
X85644Y-61027D01*
X85818Y-60955D01*
X85950Y-60822D01*
X86022Y-60649D01*
X86023Y-60461D01*
X86023Y-61461D01*
X85951Y-61288D01*
X85818Y-61155D01*
X85645Y-61083D01*
X85457Y-61083D01*
X85284Y-61154D01*
X85151Y-61287D01*
X85079Y-61460D01*
X85079Y-61648D01*
X85150Y-61822D01*
X85283Y-61954D01*
X85456Y-62026D01*
X85644Y-62027D01*
X85818Y-61955D01*
X85950Y-61822D01*
X86022Y-61649D01*
X86023Y-61461D01*
X86023Y-62259D01*
X85923Y-62259D01*
X85818Y-62155D01*
X85645Y-62083D01*
X85457Y-62083D01*
X85284Y-62154D01*
X85151Y-62287D01*
X85079Y-62460D01*
X85079Y-62648D01*
X85150Y-62822D01*
X85283Y-62954D01*
X85456Y-63026D01*
X85644Y-63027D01*
X85818Y-62955D01*
X85923Y-62850D01*
X87033Y-62850D01*
X87137Y-62893D01*
X87270Y-62893D01*
X87394Y-62842D01*
X87460Y-62776D01*
X87460Y-63031D01*
X87477Y-63114D01*
X87524Y-63184D01*
X87594Y-63231D01*
X87677Y-63248D01*
X95250Y-63248D01*
X92834Y-68548D01*
X92834Y-67834D01*
X92804Y-67683D01*
X92719Y-67556D01*
X92591Y-67470D01*
X92440Y-67440D01*
X88740Y-67440D01*
X88589Y-67470D01*
X88461Y-67556D01*
X88376Y-67683D01*
X88346Y-67834D01*
X88376Y-67985D01*
X88461Y-68113D01*
X88589Y-68198D01*
X88740Y-68228D01*
X92440Y-68228D01*
X92591Y-68198D01*
X92719Y-68113D01*
X92804Y-67985D01*
X92834Y-67834D01*
X92834Y-68548D01*
X92610Y-69040D01*
X87719Y-73600D01*
X85965Y-74327D01*
X85965Y-63479D01*
X85904Y-63326D01*
X85897Y-63315D01*
X85831Y-63288D01*
X85817Y-63302D01*
X85817Y-63274D01*
X85790Y-63208D01*
X85639Y-63143D01*
X85475Y-63141D01*
X85322Y-63201D01*
X85311Y-63208D01*
X85284Y-63274D01*
X85551Y-63541D01*
X85817Y-63274D01*
X85817Y-63302D01*
X85565Y-63555D01*
X85831Y-63821D01*
X85897Y-63794D01*
X85962Y-63643D01*
X85965Y-63479D01*
X85965Y-74327D01*
X85817Y-74389D01*
X85817Y-63835D01*
X85551Y-63569D01*
X85537Y-63582D01*
X85537Y-63555D01*
X85271Y-63288D01*
X85204Y-63315D01*
X85139Y-63466D01*
X85137Y-63630D01*
X85197Y-63783D01*
X85204Y-63794D01*
X85271Y-63821D01*
X85537Y-63555D01*
X85537Y-63582D01*
X85284Y-63835D01*
X85311Y-63901D01*
X85462Y-63966D01*
X85626Y-63969D01*
X85779Y-63908D01*
X85790Y-63901D01*
X85817Y-63835D01*
X85817Y-74389D01*
X82933Y-75583D01*
X82933Y-70379D01*
X83383Y-70829D01*
X83510Y-70914D01*
X83661Y-70944D01*
X83812Y-70914D01*
X83897Y-70857D01*
X83897Y-72086D01*
X83927Y-72237D01*
X84012Y-72365D01*
X84682Y-73034D01*
X84809Y-73119D01*
X84960Y-73149D01*
X85111Y-73119D01*
X85239Y-73034D01*
X85324Y-72906D01*
X85354Y-72755D01*
X85324Y-72605D01*
X85239Y-72477D01*
X84685Y-71923D01*
X84685Y-70399D01*
X84881Y-70596D01*
X84881Y-71692D01*
X84911Y-71843D01*
X84997Y-71971D01*
X85124Y-72056D01*
X85275Y-72086D01*
X85426Y-72056D01*
X85553Y-71971D01*
X85639Y-71843D01*
X85669Y-71692D01*
X85669Y-70433D01*
X85639Y-70282D01*
X85639Y-70282D01*
X85617Y-70250D01*
X85553Y-70154D01*
X85553Y-70154D01*
X85039Y-69640D01*
X85039Y-65314D01*
X85009Y-65164D01*
X85009Y-65164D01*
X84924Y-65036D01*
X84924Y-65036D01*
X84648Y-64760D01*
X84520Y-64675D01*
X84370Y-64645D01*
X84219Y-64675D01*
X84091Y-64760D01*
X84006Y-64888D01*
X83976Y-65039D01*
X84001Y-65168D01*
X83904Y-65187D01*
X83776Y-65272D01*
X83691Y-65400D01*
X83661Y-65551D01*
X83691Y-65701D01*
X83740Y-65774D01*
X83740Y-66241D01*
X83693Y-66211D01*
X83543Y-66181D01*
X83392Y-66211D01*
X83264Y-66296D01*
X83179Y-66424D01*
X83149Y-66574D01*
X83175Y-66705D01*
X83110Y-66692D01*
X82959Y-66722D01*
X82831Y-66808D01*
X82746Y-66935D01*
X82716Y-67086D01*
X82716Y-67775D01*
X76062Y-67775D01*
X76062Y-64370D01*
X76062Y-53622D01*
X76033Y-53471D01*
X75947Y-53343D01*
X75819Y-53258D01*
X75669Y-53228D01*
X75518Y-53258D01*
X75390Y-53343D01*
X75305Y-53471D01*
X75275Y-53622D01*
X75275Y-53763D01*
X75157Y-53740D01*
X75006Y-53770D01*
X74879Y-53855D01*
X74793Y-53983D01*
X74763Y-54133D01*
X74763Y-63779D01*
X74793Y-63930D01*
X74879Y-64057D01*
X75006Y-64143D01*
X75157Y-64173D01*
X75275Y-64149D01*
X75275Y-64370D01*
X75305Y-64520D01*
X75390Y-64648D01*
X75518Y-64733D01*
X75669Y-64763D01*
X75819Y-64733D01*
X75947Y-64648D01*
X76033Y-64520D01*
X76062Y-64370D01*
X76062Y-67775D01*
X74763Y-67775D01*
X74680Y-67792D01*
X74610Y-67839D01*
X74563Y-67909D01*
X74547Y-67992D01*
X74547Y-75565D01*
X74527Y-75556D01*
X74527Y-65748D01*
X74527Y-54133D01*
X74497Y-53983D01*
X74412Y-53855D01*
X74284Y-53770D01*
X74133Y-53740D01*
X74015Y-53763D01*
X74015Y-53622D01*
X73985Y-53471D01*
X73900Y-53343D01*
X73772Y-53258D01*
X73622Y-53228D01*
X73471Y-53258D01*
X73343Y-53343D01*
X73330Y-53363D01*
X73309Y-53343D01*
X73182Y-53258D01*
X73031Y-53228D01*
X72880Y-53258D01*
X72753Y-53343D01*
X72667Y-53471D01*
X72637Y-53622D01*
X72667Y-53772D01*
X72716Y-53845D01*
X72716Y-64212D01*
X72716Y-66259D01*
X72716Y-66764D01*
X72707Y-66778D01*
X72677Y-66929D01*
X72707Y-67079D01*
X72792Y-67207D01*
X72920Y-67292D01*
X73070Y-67322D01*
X73221Y-67292D01*
X73349Y-67207D01*
X73388Y-67168D01*
X73473Y-67040D01*
X73473Y-67040D01*
X73503Y-66889D01*
X73503Y-66590D01*
X73622Y-66614D01*
X73772Y-66584D01*
X73900Y-66498D01*
X73985Y-66371D01*
X74015Y-66220D01*
X74015Y-66118D01*
X74133Y-66141D01*
X74284Y-66111D01*
X74412Y-66026D01*
X74497Y-65898D01*
X74527Y-65748D01*
X74527Y-75556D01*
X73031Y-74874D01*
X73031Y-71968D01*
X73001Y-71817D01*
X72916Y-71690D01*
X72788Y-71604D01*
X72637Y-71574D01*
X72356Y-71574D01*
X72356Y-60475D01*
X72292Y-60313D01*
X72284Y-60300D01*
X72215Y-60270D01*
X71931Y-60555D01*
X72215Y-60839D01*
X72284Y-60809D01*
X72353Y-60649D01*
X72356Y-60475D01*
X72356Y-71574D01*
X72201Y-71574D01*
X72201Y-60853D01*
X71917Y-60569D01*
X71633Y-60853D01*
X71662Y-60921D01*
X71822Y-60991D01*
X71996Y-60994D01*
X72158Y-60930D01*
X72171Y-60921D01*
X72201Y-60853D01*
X72201Y-71574D01*
X71810Y-71574D01*
X71810Y-62940D01*
X71810Y-62390D01*
X71780Y-62318D01*
X71752Y-62290D01*
X71752Y-61629D01*
X71692Y-61476D01*
X71684Y-61465D01*
X71618Y-61438D01*
X71604Y-61452D01*
X71604Y-61424D01*
X71577Y-61358D01*
X71427Y-61293D01*
X71263Y-61290D01*
X71110Y-61351D01*
X71099Y-61358D01*
X71072Y-61424D01*
X71338Y-61690D01*
X71604Y-61424D01*
X71604Y-61452D01*
X71352Y-61704D01*
X71618Y-61970D01*
X71684Y-61944D01*
X71750Y-61793D01*
X71752Y-61629D01*
X71752Y-62290D01*
X71725Y-62262D01*
X71652Y-62232D01*
X71604Y-62232D01*
X71604Y-61984D01*
X71338Y-61718D01*
X71324Y-61732D01*
X71324Y-61704D01*
X71058Y-61438D01*
X70992Y-61465D01*
X70927Y-61616D01*
X70924Y-61780D01*
X70984Y-61932D01*
X70992Y-61944D01*
X71058Y-61970D01*
X71324Y-61704D01*
X71324Y-61732D01*
X71072Y-61984D01*
X71099Y-62050D01*
X71249Y-62116D01*
X71414Y-62118D01*
X71566Y-62058D01*
X71577Y-62050D01*
X71604Y-61984D01*
X71604Y-62232D01*
X71574Y-62232D01*
X71024Y-62232D01*
X70952Y-62262D01*
X70896Y-62318D01*
X70866Y-62390D01*
X70866Y-62468D01*
X70866Y-63018D01*
X70896Y-63091D01*
X70951Y-63146D01*
X71024Y-63176D01*
X71102Y-63176D01*
X71652Y-63176D01*
X71724Y-63146D01*
X71780Y-63091D01*
X71810Y-63019D01*
X71810Y-62940D01*
X71810Y-71574D01*
X70084Y-71574D01*
X68180Y-69671D01*
X68242Y-69712D01*
X68274Y-69733D01*
X68274Y-69733D01*
X68425Y-69763D01*
X70748Y-69763D01*
X70898Y-69733D01*
X71026Y-69648D01*
X71111Y-69520D01*
X71141Y-69370D01*
X71111Y-69219D01*
X71026Y-69091D01*
X70898Y-69006D01*
X70748Y-68976D01*
X69346Y-68976D01*
X69370Y-68858D01*
X69340Y-68707D01*
X69340Y-68707D01*
X69254Y-68579D01*
X67826Y-67151D01*
X67920Y-67214D01*
X67920Y-67214D01*
X68070Y-67244D01*
X68425Y-67244D01*
X68575Y-67214D01*
X68703Y-67128D01*
X68788Y-67001D01*
X68818Y-66850D01*
X68788Y-66699D01*
X68703Y-66572D01*
X68575Y-66486D01*
X68425Y-66456D01*
X68233Y-66456D01*
X67637Y-65860D01*
X67637Y-64488D01*
X67607Y-64337D01*
X67522Y-64209D01*
X67394Y-64124D01*
X67244Y-64094D01*
X67093Y-64124D01*
X66965Y-64209D01*
X66880Y-64337D01*
X66850Y-64488D01*
X66850Y-64850D01*
X66764Y-64793D01*
X66614Y-64763D01*
X66463Y-64793D01*
X66335Y-64879D01*
X66250Y-65006D01*
X66220Y-65157D01*
X66220Y-66496D01*
X66248Y-66636D01*
X65433Y-65821D01*
X65433Y-65157D01*
X65403Y-65006D01*
X65317Y-64879D01*
X65190Y-64793D01*
X65039Y-64763D01*
X64888Y-64793D01*
X64760Y-64879D01*
X64675Y-65006D01*
X64645Y-65157D01*
X64645Y-65389D01*
X64520Y-65305D01*
X64370Y-65275D01*
X64219Y-65305D01*
X64091Y-65390D01*
X64006Y-65518D01*
X63976Y-65669D01*
X63976Y-66417D01*
X64006Y-66567D01*
X64091Y-66695D01*
X69642Y-72246D01*
X69770Y-72332D01*
X69770Y-72332D01*
X69921Y-72362D01*
X72637Y-72362D01*
X72788Y-72332D01*
X72916Y-72246D01*
X73001Y-72119D01*
X73031Y-71968D01*
X73031Y-74874D01*
X68754Y-72925D01*
X64194Y-68034D01*
X62211Y-63248D01*
X69783Y-63248D01*
X69763Y-63346D01*
X69793Y-63497D01*
X69879Y-63624D01*
X70006Y-63710D01*
X70157Y-63740D01*
X70308Y-63710D01*
X70435Y-63624D01*
X70475Y-63585D01*
X70560Y-63457D01*
X70560Y-63457D01*
X70590Y-63307D01*
X70590Y-60931D01*
X70635Y-60976D01*
X70818Y-61051D01*
X71015Y-61052D01*
X71198Y-60976D01*
X71338Y-60836D01*
X71414Y-60654D01*
X71414Y-60475D01*
X71520Y-60369D01*
X71481Y-60460D01*
X71478Y-60634D01*
X71541Y-60796D01*
X71550Y-60809D01*
X71619Y-60839D01*
X71903Y-60555D01*
X71897Y-60549D01*
X71911Y-60535D01*
X71917Y-60541D01*
X72201Y-60256D01*
X72171Y-60188D01*
X72011Y-60118D01*
X71837Y-60115D01*
X71684Y-60176D01*
X71690Y-60168D01*
X71712Y-60055D01*
X71712Y-60008D01*
X71818Y-60051D01*
X72015Y-60052D01*
X72198Y-59976D01*
X72338Y-59836D01*
X72414Y-59654D01*
X72414Y-59456D01*
X72338Y-59274D01*
X72199Y-59134D01*
X72016Y-59058D01*
X71818Y-59058D01*
X71712Y-59102D01*
X71712Y-59008D01*
X71818Y-59051D01*
X72015Y-59052D01*
X72198Y-58976D01*
X72338Y-58836D01*
X72414Y-58654D01*
X72414Y-58456D01*
X72338Y-58274D01*
X72199Y-58134D01*
X72016Y-58058D01*
X71818Y-58058D01*
X71712Y-58102D01*
X71712Y-58008D01*
X71818Y-58051D01*
X72015Y-58052D01*
X72198Y-57976D01*
X72338Y-57836D01*
X72414Y-57654D01*
X72414Y-57456D01*
X72338Y-57274D01*
X72199Y-57134D01*
X72016Y-57058D01*
X71818Y-57058D01*
X71752Y-57085D01*
X71752Y-56329D01*
X71692Y-56177D01*
X71684Y-56166D01*
X71618Y-56139D01*
X71352Y-56405D01*
X71618Y-56671D01*
X71684Y-56644D01*
X71750Y-56494D01*
X71752Y-56329D01*
X71752Y-57085D01*
X71700Y-57106D01*
X71690Y-57052D01*
X71626Y-56956D01*
X71467Y-56798D01*
X71566Y-56759D01*
X71577Y-56751D01*
X71604Y-56685D01*
X71338Y-56419D01*
X71333Y-56424D01*
X71319Y-56411D01*
X71324Y-56405D01*
X71319Y-56399D01*
X71333Y-56386D01*
X71338Y-56391D01*
X71604Y-56125D01*
X71577Y-56059D01*
X71427Y-55994D01*
X71263Y-55991D01*
X71110Y-56051D01*
X71108Y-56053D01*
X71284Y-55877D01*
X71652Y-55877D01*
X71724Y-55847D01*
X71780Y-55792D01*
X71810Y-55719D01*
X71810Y-55641D01*
X71810Y-55091D01*
X71780Y-55019D01*
X71732Y-54970D01*
X71732Y-54960D01*
X71732Y-54960D01*
X71732Y-54960D01*
X71724Y-54923D01*
X71702Y-54809D01*
X71702Y-54809D01*
X71680Y-54777D01*
X71616Y-54682D01*
X71616Y-54682D01*
X70750Y-53816D01*
X70623Y-53730D01*
X70472Y-53700D01*
X68718Y-53700D01*
X68749Y-53654D01*
X68779Y-53503D01*
X68749Y-53353D01*
X68664Y-53225D01*
X68536Y-53140D01*
X68441Y-53121D01*
X68267Y-52947D01*
X68267Y-51659D01*
X69178Y-50748D01*
X69448Y-50748D01*
X69599Y-50718D01*
X69727Y-50632D01*
X69812Y-50504D01*
X69842Y-50354D01*
X69812Y-50203D01*
X69727Y-50075D01*
X69672Y-50039D01*
X71322Y-50039D01*
X71299Y-50157D01*
X71329Y-50308D01*
X71414Y-50435D01*
X72007Y-51029D01*
X72007Y-51496D01*
X72037Y-51646D01*
X72123Y-51774D01*
X72250Y-51859D01*
X72401Y-51889D01*
X72552Y-51859D01*
X72679Y-51774D01*
X72765Y-51646D01*
X72768Y-51632D01*
X73461Y-52325D01*
X73461Y-52325D01*
X73557Y-52389D01*
X73589Y-52410D01*
X73589Y-52410D01*
X73702Y-52433D01*
X73740Y-52440D01*
X73740Y-52440D01*
X73740Y-52440D01*
X74173Y-52440D01*
X74323Y-52410D01*
X74451Y-52325D01*
X74536Y-52197D01*
X74566Y-52047D01*
X74536Y-51896D01*
X74466Y-51791D01*
X74536Y-51686D01*
X74566Y-51535D01*
X74541Y-51406D01*
X74638Y-51387D01*
X74766Y-51302D01*
X74851Y-51174D01*
X74881Y-51023D01*
X74851Y-50872D01*
X74766Y-50745D01*
X74606Y-50584D01*
X74606Y-50472D01*
X74606Y-50472D01*
X74606Y-50472D01*
X74598Y-50435D01*
X74576Y-50321D01*
X74576Y-50321D01*
X74554Y-50289D01*
X74490Y-50194D01*
X74490Y-50194D01*
X72640Y-48343D01*
X72512Y-48258D01*
X72362Y-48228D01*
X66102Y-48228D01*
X65767Y-48228D01*
X69747Y-44517D01*
X74547Y-42528D01*
X74547Y-50118D01*
X74563Y-50200D01*
X74610Y-50271D01*
X74680Y-50318D01*
X74763Y-50334D01*
X82716Y-50334D01*
X82799Y-50318D01*
X82869Y-50271D01*
X82916Y-50200D01*
X82933Y-50118D01*
X82933Y-42541D01*
X88727Y-45181D01*
X93278Y-50062D01*
X95266Y-54862D01*
X95266Y-54862D01*
G37*
G54D19*
X95266Y-54862D02*
X92834Y-54862D01*
X92834Y-53031D01*
X92804Y-52880D01*
X92719Y-52753D01*
X89530Y-49564D01*
X89402Y-49478D01*
X89251Y-49448D01*
X86889Y-49448D01*
X86739Y-49478D01*
X86611Y-49564D01*
X86526Y-49691D01*
X86496Y-49842D01*
X86526Y-49993D01*
X86611Y-50120D01*
X86739Y-50206D01*
X86889Y-50236D01*
X87346Y-50236D01*
X87322Y-50354D01*
X87352Y-50504D01*
X87438Y-50632D01*
X87565Y-50718D01*
X87716Y-50748D01*
X87897Y-50748D01*
X87874Y-50866D01*
X87903Y-51016D01*
X87989Y-51144D01*
X88117Y-51229D01*
X88267Y-51259D01*
X88537Y-51259D01*
X90587Y-53309D01*
X90715Y-53395D01*
X90866Y-53425D01*
X91016Y-53395D01*
X91144Y-53309D01*
X91229Y-53182D01*
X91232Y-53167D01*
X91375Y-53309D01*
X91502Y-53395D01*
X91653Y-53425D01*
X91804Y-53395D01*
X91931Y-53309D01*
X92017Y-53182D01*
X92020Y-53167D01*
X92162Y-53309D01*
X92290Y-53395D01*
X92440Y-53425D01*
X92591Y-53395D01*
X92719Y-53309D01*
X92804Y-53182D01*
X92834Y-53031D01*
X92834Y-54862D01*
X87677Y-54862D01*
X87594Y-54878D01*
X87559Y-54902D01*
X87559Y-54409D01*
X87529Y-54258D01*
X87443Y-54131D01*
X86774Y-53461D01*
X86646Y-53376D01*
X86496Y-53346D01*
X85590Y-53346D01*
X85439Y-53376D01*
X85312Y-53461D01*
X85226Y-53589D01*
X85196Y-53740D01*
X85226Y-53890D01*
X85312Y-54018D01*
X85408Y-54083D01*
X85237Y-54083D01*
X85164Y-54113D01*
X85109Y-54168D01*
X85079Y-54240D01*
X85079Y-54319D01*
X85079Y-54869D01*
X85109Y-54941D01*
X85164Y-54996D01*
X85236Y-55026D01*
X85315Y-55027D01*
X85865Y-55027D01*
X85937Y-54997D01*
X85992Y-54941D01*
X86022Y-54869D01*
X86023Y-54791D01*
X86023Y-54241D01*
X85993Y-54168D01*
X85958Y-54133D01*
X86332Y-54133D01*
X86886Y-54687D01*
X87014Y-54773D01*
X87165Y-54803D01*
X87316Y-54773D01*
X87443Y-54687D01*
X87529Y-54560D01*
X87559Y-54409D01*
X87559Y-54902D01*
X87524Y-54925D01*
X87477Y-54995D01*
X87460Y-55078D01*
X87460Y-62341D01*
X87394Y-62275D01*
X87271Y-62224D01*
X87164Y-62224D01*
X87164Y-60972D01*
X87164Y-60422D01*
X87164Y-57610D01*
X87164Y-57060D01*
X87134Y-56987D01*
X87079Y-56932D01*
X87007Y-56902D01*
X86928Y-56902D01*
X86378Y-56902D01*
X86306Y-56932D01*
X86251Y-56987D01*
X86221Y-57059D01*
X86221Y-57138D01*
X86221Y-57688D01*
X86250Y-57760D01*
X86306Y-57815D01*
X86378Y-57845D01*
X86456Y-57845D01*
X87006Y-57845D01*
X87079Y-57815D01*
X87134Y-57760D01*
X87164Y-57688D01*
X87164Y-57610D01*
X87164Y-60422D01*
X87134Y-60349D01*
X87106Y-60321D01*
X87106Y-59660D01*
X87106Y-58298D01*
X87046Y-58145D01*
X87039Y-58134D01*
X86973Y-58107D01*
X86959Y-58121D01*
X86959Y-58093D01*
X86932Y-58027D01*
X86781Y-57962D01*
X86617Y-57959D01*
X86464Y-58020D01*
X86453Y-58027D01*
X86426Y-58093D01*
X86692Y-58360D01*
X86959Y-58093D01*
X86959Y-58121D01*
X86706Y-58374D01*
X86973Y-58640D01*
X87039Y-58613D01*
X87104Y-58462D01*
X87106Y-58298D01*
X87106Y-59660D01*
X87046Y-59507D01*
X87039Y-59496D01*
X86973Y-59470D01*
X86959Y-59483D01*
X86959Y-59456D01*
X86959Y-58654D01*
X86692Y-58387D01*
X86678Y-58401D01*
X86678Y-58374D01*
X86412Y-58107D01*
X86346Y-58134D01*
X86281Y-58285D01*
X86278Y-58449D01*
X86339Y-58602D01*
X86346Y-58613D01*
X86412Y-58640D01*
X86678Y-58374D01*
X86678Y-58401D01*
X86426Y-58654D01*
X86453Y-58720D01*
X86604Y-58785D01*
X86768Y-58788D01*
X86921Y-58727D01*
X86932Y-58720D01*
X86959Y-58654D01*
X86959Y-59456D01*
X86932Y-59390D01*
X86781Y-59324D01*
X86617Y-59322D01*
X86464Y-59382D01*
X86453Y-59390D01*
X86426Y-59456D01*
X86692Y-59722D01*
X86959Y-59456D01*
X86959Y-59483D01*
X86706Y-59736D01*
X86973Y-60002D01*
X87039Y-59975D01*
X87104Y-59824D01*
X87106Y-59660D01*
X87106Y-60321D01*
X87079Y-60294D01*
X87007Y-60264D01*
X86959Y-60264D01*
X86959Y-60016D01*
X86692Y-59750D01*
X86678Y-59764D01*
X86678Y-59736D01*
X86412Y-59470D01*
X86346Y-59496D01*
X86281Y-59647D01*
X86278Y-59811D01*
X86339Y-59964D01*
X86346Y-59975D01*
X86412Y-60002D01*
X86678Y-59736D01*
X86678Y-59764D01*
X86426Y-60016D01*
X86453Y-60082D01*
X86604Y-60147D01*
X86768Y-60150D01*
X86921Y-60089D01*
X86932Y-60082D01*
X86959Y-60016D01*
X86959Y-60264D01*
X86928Y-60264D01*
X86378Y-60264D01*
X86306Y-60294D01*
X86251Y-60349D01*
X86221Y-60421D01*
X86221Y-60500D01*
X86221Y-61050D01*
X86250Y-61122D01*
X86306Y-61178D01*
X86378Y-61208D01*
X86456Y-61208D01*
X87006Y-61208D01*
X87079Y-61178D01*
X87134Y-61122D01*
X87164Y-61050D01*
X87164Y-60972D01*
X87164Y-62224D01*
X87138Y-62224D01*
X87052Y-62259D01*
X86023Y-62259D01*
X86023Y-61461D01*
X86023Y-60461D01*
X86023Y-59461D01*
X86023Y-58461D01*
X86023Y-57461D01*
X86023Y-56461D01*
X86023Y-55461D01*
X85951Y-55288D01*
X85818Y-55155D01*
X85645Y-55083D01*
X85457Y-55083D01*
X85284Y-55154D01*
X85151Y-55287D01*
X85079Y-55460D01*
X85079Y-55648D01*
X85150Y-55822D01*
X85283Y-55954D01*
X85456Y-56026D01*
X85644Y-56027D01*
X85818Y-55955D01*
X85950Y-55822D01*
X86022Y-55649D01*
X86023Y-55461D01*
X86023Y-56461D01*
X85951Y-56288D01*
X85818Y-56155D01*
X85645Y-56083D01*
X85457Y-56083D01*
X85284Y-56154D01*
X85151Y-56287D01*
X85079Y-56460D01*
X85079Y-56648D01*
X85150Y-56822D01*
X85283Y-56954D01*
X85456Y-57026D01*
X85644Y-57027D01*
X85818Y-56955D01*
X85950Y-56822D01*
X86022Y-56649D01*
X86023Y-56461D01*
X86023Y-57461D01*
X85951Y-57288D01*
X85818Y-57155D01*
X85645Y-57083D01*
X85457Y-57083D01*
X85284Y-57154D01*
X85151Y-57287D01*
X85079Y-57460D01*
X85079Y-57648D01*
X85150Y-57822D01*
X85283Y-57954D01*
X85456Y-58026D01*
X85644Y-58027D01*
X85818Y-57955D01*
X85950Y-57822D01*
X86022Y-57649D01*
X86023Y-57461D01*
X86023Y-58461D01*
X85951Y-58288D01*
X85818Y-58155D01*
X85645Y-58083D01*
X85457Y-58083D01*
X85284Y-58154D01*
X85151Y-58287D01*
X85079Y-58460D01*
X85079Y-58648D01*
X85150Y-58822D01*
X85283Y-58954D01*
X85456Y-59026D01*
X85644Y-59027D01*
X85818Y-58955D01*
X85950Y-58822D01*
X86022Y-58649D01*
X86023Y-58461D01*
X86023Y-59461D01*
X85951Y-59288D01*
X85818Y-59155D01*
X85645Y-59083D01*
X85457Y-59083D01*
X85284Y-59154D01*
X85151Y-59287D01*
X85079Y-59460D01*
X85079Y-59648D01*
X85150Y-59822D01*
X85283Y-59954D01*
X85456Y-60026D01*
X85644Y-60027D01*
X85818Y-59955D01*
X85950Y-59822D01*
X86022Y-59649D01*
X86023Y-59461D01*
X86023Y-60461D01*
X85951Y-60288D01*
X85818Y-60155D01*
X85645Y-60083D01*
X85457Y-60083D01*
X85284Y-60154D01*
X85151Y-60287D01*
X85079Y-60460D01*
X85079Y-60648D01*
X85150Y-60822D01*
X85283Y-60954D01*
X85456Y-61026D01*
X85644Y-61027D01*
X85818Y-60955D01*
X85950Y-60822D01*
X86022Y-60649D01*
X86023Y-60461D01*
X86023Y-61461D01*
X85951Y-61288D01*
X85818Y-61155D01*
X85645Y-61083D01*
X85457Y-61083D01*
X85284Y-61154D01*
X85151Y-61287D01*
X85079Y-61460D01*
X85079Y-61648D01*
X85150Y-61822D01*
X85283Y-61954D01*
X85456Y-62026D01*
X85644Y-62027D01*
X85818Y-61955D01*
X85950Y-61822D01*
X86022Y-61649D01*
X86023Y-61461D01*
X86023Y-62259D01*
X85923Y-62259D01*
X85818Y-62155D01*
X85645Y-62083D01*
X85457Y-62083D01*
X85284Y-62154D01*
X85151Y-62287D01*
X85079Y-62460D01*
X85079Y-62648D01*
X85150Y-62822D01*
X85283Y-62954D01*
X85456Y-63026D01*
X85644Y-63027D01*
X85818Y-62955D01*
X85923Y-62850D01*
X87033Y-62850D01*
X87137Y-62893D01*
X87270Y-62893D01*
X87394Y-62842D01*
X87460Y-62776D01*
X87460Y-63031D01*
X87477Y-63114D01*
X87524Y-63184D01*
X87594Y-63231D01*
X87677Y-63248D01*
X95250Y-63248D01*
X92834Y-68548D01*
X92834Y-67834D01*
X92804Y-67683D01*
X92719Y-67556D01*
X92591Y-67470D01*
X92440Y-67440D01*
X88740Y-67440D01*
X88589Y-67470D01*
X88461Y-67556D01*
X88376Y-67683D01*
X88346Y-67834D01*
X88376Y-67985D01*
X88461Y-68113D01*
X88589Y-68198D01*
X88740Y-68228D01*
X92440Y-68228D01*
X92591Y-68198D01*
X92719Y-68113D01*
X92804Y-67985D01*
X92834Y-67834D01*
X92834Y-68548D01*
X92610Y-69040D01*
X87719Y-73600D01*
X85965Y-74327D01*
X85965Y-63479D01*
X85904Y-63326D01*
X85897Y-63315D01*
X85831Y-63288D01*
X85817Y-63302D01*
X85817Y-63274D01*
X85790Y-63208D01*
X85639Y-63143D01*
X85475Y-63141D01*
X85322Y-63201D01*
X85311Y-63208D01*
X85284Y-63274D01*
X85551Y-63541D01*
X85817Y-63274D01*
X85817Y-63302D01*
X85565Y-63555D01*
X85831Y-63821D01*
X85897Y-63794D01*
X85962Y-63643D01*
X85965Y-63479D01*
X85965Y-74327D01*
X85817Y-74389D01*
X85817Y-63835D01*
X85551Y-63569D01*
X85537Y-63582D01*
X85537Y-63555D01*
X85271Y-63288D01*
X85204Y-63315D01*
X85139Y-63466D01*
X85137Y-63630D01*
X85197Y-63783D01*
X85204Y-63794D01*
X85271Y-63821D01*
X85537Y-63555D01*
X85537Y-63582D01*
X85284Y-63835D01*
X85311Y-63901D01*
X85462Y-63966D01*
X85626Y-63969D01*
X85779Y-63908D01*
X85790Y-63901D01*
X85817Y-63835D01*
X85817Y-74389D01*
X82933Y-75583D01*
X82933Y-70379D01*
X83383Y-70829D01*
X83510Y-70914D01*
X83661Y-70944D01*
X83812Y-70914D01*
X83897Y-70857D01*
X83897Y-72086D01*
X83927Y-72237D01*
X84012Y-72365D01*
X84682Y-73034D01*
X84809Y-73119D01*
X84960Y-73149D01*
X85111Y-73119D01*
X85239Y-73034D01*
X85324Y-72906D01*
X85354Y-72755D01*
X85324Y-72605D01*
X85239Y-72477D01*
X84685Y-71923D01*
X84685Y-70399D01*
X84881Y-70596D01*
X84881Y-71692D01*
X84911Y-71843D01*
X84997Y-71971D01*
X85124Y-72056D01*
X85275Y-72086D01*
X85426Y-72056D01*
X85553Y-71971D01*
X85639Y-71843D01*
X85669Y-71692D01*
X85669Y-70433D01*
X85639Y-70282D01*
X85639Y-70282D01*
X85617Y-70250D01*
X85553Y-70154D01*
X85553Y-70154D01*
X85039Y-69640D01*
X85039Y-65314D01*
X85009Y-65164D01*
X85009Y-65164D01*
X84924Y-65036D01*
X84924Y-65036D01*
X84648Y-64760D01*
X84520Y-64675D01*
X84370Y-64645D01*
X84219Y-64675D01*
X84091Y-64760D01*
X84006Y-64888D01*
X83976Y-65039D01*
X84001Y-65168D01*
X83904Y-65187D01*
X83776Y-65272D01*
X83691Y-65400D01*
X83661Y-65551D01*
X83691Y-65701D01*
X83740Y-65774D01*
X83740Y-66241D01*
X83693Y-66211D01*
X83543Y-66181D01*
X83392Y-66211D01*
X83264Y-66296D01*
X83179Y-66424D01*
X83149Y-66574D01*
X83175Y-66705D01*
X83110Y-66692D01*
X82959Y-66722D01*
X82831Y-66808D01*
X82746Y-66935D01*
X82716Y-67086D01*
X82716Y-67775D01*
X76062Y-67775D01*
X76062Y-64370D01*
X76062Y-53622D01*
X76033Y-53471D01*
X75947Y-53343D01*
X75819Y-53258D01*
X75669Y-53228D01*
X75518Y-53258D01*
X75390Y-53343D01*
X75305Y-53471D01*
X75275Y-53622D01*
X75275Y-53763D01*
X75157Y-53740D01*
X75006Y-53770D01*
X74879Y-53855D01*
X74793Y-53983D01*
X74763Y-54133D01*
X74763Y-63779D01*
X74793Y-63930D01*
X74879Y-64057D01*
X75006Y-64143D01*
X75157Y-64173D01*
X75275Y-64149D01*
X75275Y-64370D01*
X75305Y-64520D01*
X75390Y-64648D01*
X75518Y-64733D01*
X75669Y-64763D01*
X75819Y-64733D01*
X75947Y-64648D01*
X76033Y-64520D01*
X76062Y-64370D01*
X76062Y-67775D01*
X74763Y-67775D01*
X74680Y-67792D01*
X74610Y-67839D01*
X74563Y-67909D01*
X74547Y-67992D01*
X74547Y-75565D01*
X74527Y-75556D01*
X74527Y-65748D01*
X74527Y-54133D01*
X74497Y-53983D01*
X74412Y-53855D01*
X74284Y-53770D01*
X74133Y-53740D01*
X74015Y-53763D01*
X74015Y-53622D01*
X73985Y-53471D01*
X73900Y-53343D01*
X73772Y-53258D01*
X73622Y-53228D01*
X73471Y-53258D01*
X73343Y-53343D01*
X73330Y-53363D01*
X73309Y-53343D01*
X73182Y-53258D01*
X73031Y-53228D01*
X72880Y-53258D01*
X72753Y-53343D01*
X72667Y-53471D01*
X72637Y-53622D01*
X72667Y-53772D01*
X72716Y-53845D01*
X72716Y-64212D01*
X72716Y-66259D01*
X72716Y-66764D01*
X72707Y-66778D01*
X72677Y-66929D01*
X72707Y-67079D01*
X72792Y-67207D01*
X72920Y-67292D01*
X73070Y-67322D01*
X73221Y-67292D01*
X73349Y-67207D01*
X73388Y-67168D01*
X73473Y-67040D01*
X73473Y-67040D01*
X73503Y-66889D01*
X73503Y-66590D01*
X73622Y-66614D01*
X73772Y-66584D01*
X73900Y-66498D01*
X73985Y-66371D01*
X74015Y-66220D01*
X74015Y-66118D01*
X74133Y-66141D01*
X74284Y-66111D01*
X74412Y-66026D01*
X74497Y-65898D01*
X74527Y-65748D01*
X74527Y-75556D01*
X73031Y-74874D01*
X73031Y-71968D01*
X73001Y-71817D01*
X72916Y-71690D01*
X72788Y-71604D01*
X72637Y-71574D01*
X72356Y-71574D01*
X72356Y-60475D01*
X72292Y-60313D01*
X72284Y-60300D01*
X72215Y-60270D01*
X71931Y-60555D01*
X72215Y-60839D01*
X72284Y-60809D01*
X72353Y-60649D01*
X72356Y-60475D01*
X72356Y-71574D01*
X72201Y-71574D01*
X72201Y-60853D01*
X71917Y-60569D01*
X71633Y-60853D01*
X71662Y-60921D01*
X71822Y-60991D01*
X71996Y-60994D01*
X72158Y-60930D01*
X72171Y-60921D01*
X72201Y-60853D01*
X72201Y-71574D01*
X71810Y-71574D01*
X71810Y-62940D01*
X71810Y-62390D01*
X71780Y-62318D01*
X71752Y-62290D01*
X71752Y-61629D01*
X71692Y-61476D01*
X71684Y-61465D01*
X71618Y-61438D01*
X71604Y-61452D01*
X71604Y-61424D01*
X71577Y-61358D01*
X71427Y-61293D01*
X71263Y-61290D01*
X71110Y-61351D01*
X71099Y-61358D01*
X71072Y-61424D01*
X71338Y-61690D01*
X71604Y-61424D01*
X71604Y-61452D01*
X71352Y-61704D01*
X71618Y-61970D01*
X71684Y-61944D01*
X71750Y-61793D01*
X71752Y-61629D01*
X71752Y-62290D01*
X71725Y-62262D01*
X71652Y-62232D01*
X71604Y-62232D01*
X71604Y-61984D01*
X71338Y-61718D01*
X71324Y-61732D01*
X71324Y-61704D01*
X71058Y-61438D01*
X70992Y-61465D01*
X70927Y-61616D01*
X70924Y-61780D01*
X70984Y-61932D01*
X70992Y-61944D01*
X71058Y-61970D01*
X71324Y-61704D01*
X71324Y-61732D01*
X71072Y-61984D01*
X71099Y-62050D01*
X71249Y-62116D01*
X71414Y-62118D01*
X71566Y-62058D01*
X71577Y-62050D01*
X71604Y-61984D01*
X71604Y-62232D01*
X71574Y-62232D01*
X71024Y-62232D01*
X70952Y-62262D01*
X70896Y-62318D01*
X70866Y-62390D01*
X70866Y-62468D01*
X70866Y-63018D01*
X70896Y-63091D01*
X70951Y-63146D01*
X71024Y-63176D01*
X71102Y-63176D01*
X71652Y-63176D01*
X71724Y-63146D01*
X71780Y-63091D01*
X71810Y-63019D01*
X71810Y-62940D01*
X71810Y-71574D01*
X70084Y-71574D01*
X68180Y-69671D01*
X68242Y-69712D01*
X68274Y-69733D01*
X68274Y-69733D01*
X68425Y-69763D01*
X70748Y-69763D01*
X70898Y-69733D01*
X71026Y-69648D01*
X71111Y-69520D01*
X71141Y-69370D01*
X71111Y-69219D01*
X71026Y-69091D01*
X70898Y-69006D01*
X70748Y-68976D01*
X69346Y-68976D01*
X69370Y-68858D01*
X69340Y-68707D01*
X69340Y-68707D01*
X69254Y-68579D01*
X67826Y-67151D01*
X67920Y-67214D01*
X67920Y-67214D01*
X68070Y-67244D01*
X68425Y-67244D01*
X68575Y-67214D01*
X68703Y-67128D01*
X68788Y-67001D01*
X68818Y-66850D01*
X68788Y-66699D01*
X68703Y-66572D01*
X68575Y-66486D01*
X68425Y-66456D01*
X68233Y-66456D01*
X67637Y-65860D01*
X67637Y-64488D01*
X67607Y-64337D01*
X67522Y-64209D01*
X67394Y-64124D01*
X67244Y-64094D01*
X67093Y-64124D01*
X66965Y-64209D01*
X66880Y-64337D01*
X66850Y-64488D01*
X66850Y-64850D01*
X66764Y-64793D01*
X66614Y-64763D01*
X66463Y-64793D01*
X66335Y-64879D01*
X66250Y-65006D01*
X66220Y-65157D01*
X66220Y-66496D01*
X66248Y-66636D01*
X65433Y-65821D01*
X65433Y-65157D01*
X65403Y-65006D01*
X65317Y-64879D01*
X65190Y-64793D01*
X65039Y-64763D01*
X64888Y-64793D01*
X64760Y-64879D01*
X64675Y-65006D01*
X64645Y-65157D01*
X64645Y-65389D01*
X64520Y-65305D01*
X64370Y-65275D01*
X64219Y-65305D01*
X64091Y-65390D01*
X64006Y-65518D01*
X63976Y-65669D01*
X63976Y-66417D01*
X64006Y-66567D01*
X64091Y-66695D01*
X69642Y-72246D01*
X69770Y-72332D01*
X69770Y-72332D01*
X69921Y-72362D01*
X72637Y-72362D01*
X72788Y-72332D01*
X72916Y-72246D01*
X73001Y-72119D01*
X73031Y-71968D01*
X73031Y-74874D01*
X68754Y-72925D01*
X64194Y-68034D01*
X62211Y-63248D01*
X69783Y-63248D01*
X69763Y-63346D01*
X69793Y-63497D01*
X69879Y-63624D01*
X70006Y-63710D01*
X70157Y-63740D01*
X70308Y-63710D01*
X70435Y-63624D01*
X70475Y-63585D01*
X70560Y-63457D01*
X70560Y-63457D01*
X70590Y-63307D01*
X70590Y-60931D01*
X70635Y-60976D01*
X70818Y-61051D01*
X71015Y-61052D01*
X71198Y-60976D01*
X71338Y-60836D01*
X71414Y-60654D01*
X71414Y-60475D01*
X71520Y-60369D01*
X71481Y-60460D01*
X71478Y-60634D01*
X71541Y-60796D01*
X71550Y-60809D01*
X71619Y-60839D01*
X71903Y-60555D01*
X71897Y-60549D01*
X71911Y-60535D01*
X71917Y-60541D01*
X72201Y-60256D01*
X72171Y-60188D01*
X72011Y-60118D01*
X71837Y-60115D01*
X71684Y-60176D01*
X71690Y-60168D01*
X71712Y-60055D01*
X71712Y-60008D01*
X71818Y-60051D01*
X72015Y-60052D01*
X72198Y-59976D01*
X72338Y-59836D01*
X72414Y-59654D01*
X72414Y-59456D01*
X72338Y-59274D01*
X72199Y-59134D01*
X72016Y-59058D01*
X71818Y-59058D01*
X71712Y-59102D01*
X71712Y-59008D01*
X71818Y-59051D01*
X72015Y-59052D01*
X72198Y-58976D01*
X72338Y-58836D01*
X72414Y-58654D01*
X72414Y-58456D01*
X72338Y-58274D01*
X72199Y-58134D01*
X72016Y-58058D01*
X71818Y-58058D01*
X71712Y-58102D01*
X71712Y-58008D01*
X71818Y-58051D01*
X72015Y-58052D01*
X72198Y-57976D01*
X72338Y-57836D01*
X72414Y-57654D01*
X72414Y-57456D01*
X72338Y-57274D01*
X72199Y-57134D01*
X72016Y-57058D01*
X71818Y-57058D01*
X71752Y-57085D01*
X71752Y-56329D01*
X71692Y-56177D01*
X71684Y-56166D01*
X71618Y-56139D01*
X71352Y-56405D01*
X71618Y-56671D01*
X71684Y-56644D01*
X71750Y-56494D01*
X71752Y-56329D01*
X71752Y-57085D01*
X71700Y-57106D01*
X71690Y-57052D01*
X71626Y-56956D01*
X71467Y-56798D01*
X71566Y-56759D01*
X71577Y-56751D01*
X71604Y-56685D01*
X71338Y-56419D01*
X71333Y-56424D01*
X71319Y-56411D01*
X71324Y-56405D01*
X71319Y-56399D01*
X71333Y-56386D01*
X71338Y-56391D01*
X71604Y-56125D01*
X71577Y-56059D01*
X71427Y-55994D01*
X71263Y-55991D01*
X71110Y-56051D01*
X71108Y-56053D01*
X71284Y-55877D01*
X71652Y-55877D01*
X71724Y-55847D01*
X71780Y-55792D01*
X71810Y-55719D01*
X71810Y-55641D01*
X71810Y-55091D01*
X71780Y-55019D01*
X71732Y-54970D01*
X71732Y-54960D01*
X71732Y-54960D01*
X71732Y-54960D01*
X71724Y-54923D01*
X71702Y-54809D01*
X71702Y-54809D01*
X71680Y-54777D01*
X71616Y-54682D01*
X71616Y-54682D01*
X70750Y-53816D01*
X70623Y-53730D01*
X70472Y-53700D01*
X68718Y-53700D01*
X68749Y-53654D01*
X68779Y-53503D01*
X68749Y-53353D01*
X68664Y-53225D01*
X68536Y-53140D01*
X68441Y-53121D01*
X68267Y-52947D01*
X68267Y-51659D01*
X69178Y-50748D01*
X69448Y-50748D01*
X69599Y-50718D01*
X69727Y-50632D01*
X69812Y-50504D01*
X69842Y-50354D01*
X69812Y-50203D01*
X69727Y-50075D01*
X69672Y-50039D01*
X71322Y-50039D01*
X71299Y-50157D01*
X71329Y-50308D01*
X71414Y-50435D01*
X72007Y-51029D01*
X72007Y-51496D01*
X72037Y-51646D01*
X72123Y-51774D01*
X72250Y-51859D01*
X72401Y-51889D01*
X72552Y-51859D01*
X72679Y-51774D01*
X72765Y-51646D01*
X72768Y-51632D01*
X73461Y-52325D01*
X73461Y-52325D01*
X73557Y-52389D01*
X73589Y-52410D01*
X73589Y-52410D01*
X73702Y-52433D01*
X73740Y-52440D01*
X73740Y-52440D01*
X73740Y-52440D01*
X74173Y-52440D01*
X74323Y-52410D01*
X74451Y-52325D01*
X74536Y-52197D01*
X74566Y-52047D01*
X74536Y-51896D01*
X74466Y-51791D01*
X74536Y-51686D01*
X74566Y-51535D01*
X74541Y-51406D01*
X74638Y-51387D01*
X74766Y-51302D01*
X74851Y-51174D01*
X74881Y-51023D01*
X74851Y-50872D01*
X74766Y-50745D01*
X74606Y-50584D01*
X74606Y-50472D01*
X74606Y-50472D01*
X74606Y-50472D01*
X74598Y-50435D01*
X74576Y-50321D01*
X74576Y-50321D01*
X74554Y-50289D01*
X74490Y-50194D01*
X74490Y-50194D01*
X72640Y-48343D01*
X72512Y-48258D01*
X72362Y-48228D01*
X66102Y-48228D01*
X65767Y-48228D01*
X69747Y-44517D01*
X74547Y-42528D01*
X74547Y-50118D01*
X74563Y-50200D01*
X74610Y-50271D01*
X74680Y-50318D01*
X74763Y-50334D01*
X82716Y-50334D01*
X82799Y-50318D01*
X82869Y-50271D01*
X82916Y-50200D01*
X82933Y-50118D01*
X82933Y-42541D01*
X88727Y-45181D01*
X93278Y-50062D01*
X95266Y-54862D01*
M02*
